M48
; DRILL file {KiCad 9.0.7} date 2026-07-15T21:02:35-0700
; FORMAT={-:-/ absolute / metric / decimal}
; #@! TF.CreationDate,2026-07-15T21:02:35-07:00
; #@! TF.GenerationSoftware,Kicad,Pcbnew,9.0.7
; #@! TF.FileFunction,Plated,1,2,PTH
FMAT,2
METRIC
; #@! TA.AperFunction,Plated,PTH,ViaDrill
T1C0.300
; #@! TA.AperFunction,Plated,PTH,ComponentDrill
T2C1.000
; #@! TA.AperFunction,Plated,PTH,ComponentDrill
T3C1.500
; #@! TA.AperFunction,Plated,PTH,ComponentDrill
T4C1.524
; #@! TA.AperFunction,Plated,PTH,ComponentDrill
T5C2.000
; #@! TA.AperFunction,Plated,PTH,ComponentDrill
T6C3.048
%
G90
G05
T1
X38.131Y-147.975
X40.6Y-44.907
X40.7Y-73.6
X42.981Y-149.75
X43.5Y-74.5
X43.7Y-45.8
X45.5Y-92.6
X46.038Y-150.575
X47.9Y-111.7
X48.537Y-93.575
X50.0Y-112.575
X50.0Y-142.0
X52.4Y-130.8
X56.5Y-132.0
X59.5Y-73.525
X62.525Y-74.475
X64.513Y-44.75
X66.8Y-149.75
X67.1Y-45.5
X69.025Y-92.575
X70.037Y-150.575
X71.6Y-94.0
X74.0Y-111.7
X76.925Y-112.725
X78.7Y-73.525
X81.725Y-74.525
X83.35Y-44.94
X83.7Y-130.8
X86.35Y-131.65
X86.45Y-45.8
X88.2Y-92.725
X90.606Y-149.725
X91.25Y-93.55
X93.1Y-111.625
X95.5Y-150.5
X95.875Y-112.45
X97.6Y-73.525
X100.4Y-74.4
X102.5Y-130.7
X102.512Y-44.95
X105.475Y-131.6
X105.9Y-45.2
X107.3Y-92.5
X110.275Y-93.425
X111.887Y-111.625
X114.9Y-112.425
X115.252Y-59.0
X116.65Y-73.525
X119.4Y-74.8
X121.562Y-44.95
X121.8Y-130.8
X124.5Y-131.7
X124.625Y-45.85
X126.4Y-92.6
X129.325Y-93.725
X130.938Y-111.625
X133.9Y-112.2
X135.9Y-73.6
X138.825Y-74.575
X140.463Y-130.675
X143.7Y-132.0
X145.225Y-44.95
X145.5Y-92.5
X148.262Y-93.412
X148.35Y-45.85
X148.59Y-56.0
X149.987Y-111.625
X152.6Y-113.6
X154.9Y-73.6
X157.775Y-74.575
X159.8Y-130.875
X162.144Y-149.525
X162.525Y-131.7
X164.275Y-92.575
X164.4Y-45.1
X166.525Y-94.1
X166.7Y-45.8
X167.85Y-54.5
X169.3Y-111.7
X172.275Y-112.85
X173.8Y-73.525
X176.139Y-74.999
X178.8Y-130.8
X181.7Y-131.925
X183.325Y-44.95
X183.325Y-92.575
X185.6Y-94.1
X186.0Y-45.6
X188.4Y-111.8
X191.3Y-112.7
X193.1Y-73.6
X195.975Y-74.475
X196.215Y-53.0
X197.8Y-130.8
X200.7Y-131.825
X202.375Y-44.95
X202.375Y-92.575
X205.45Y-45.825
X205.8Y-94.3
X207.5Y-111.7
X210.175Y-112.525
X212.1Y-73.5
X215.1Y-74.5
X215.144Y-116.644
X217.0Y-130.8
X219.925Y-131.825
X221.425Y-92.575
X224.3Y-94.0
X226.1Y-148.0
X226.188Y-111.625
X226.337Y-44.95
X228.7Y-113.6
X229.3Y-45.925
X230.95Y-149.725
X231.2Y-73.4
X234.013Y-50.513
X234.025Y-74.6
X235.712Y-130.675
X238.4Y-131.9
X240.6Y-92.8
X243.0Y-94.3
X245.2Y-147.9
X245.237Y-111.625
X245.4Y-45.0
X247.9Y-113.5
X248.325Y-45.95
X250.0Y-73.525
X250.2Y-149.725
X252.6Y-74.7
X252.944Y-116.944
X253.25Y-150.55
X255.0Y-130.7
X255.5Y-124.4
X259.0Y-132.0
X259.8Y-92.7
X262.7Y-93.525
X264.287Y-111.625
X264.5Y-45.0
X267.4Y-45.85
X269.2Y-73.7
X269.2Y-149.725
X271.0Y-89.224
X272.5Y-110.0
X273.0Y-108.274
X273.4Y-75.1
X278.8Y-92.8
X280.0Y-141.5
X280.956Y-130.675
X281.0Y-94.0
X281.644Y-124.308
X283.6Y-45.0
X285.5Y-139.5
X286.75Y-45.85
X288.0Y-152.8
X289.5Y-70.174
X290.91Y-133.55
X291.5Y-89.224
X292.863Y-154.487
X295.5Y-111.8
X296.0Y-115.0
X297.9Y-73.4
X300.0Y-75.5
X300.5Y-105.8
X300.5Y-116.0
X301.0Y-99.0
X301.5Y-96.5
X302.537Y-92.575
X303.0Y-118.5
X303.037Y-88.275
X304.5Y-118.0
X306.5Y-120.0
X306.5Y-131.7
X307.0Y-122.5
X307.1Y-45.0
X307.2Y-135.463
X307.2Y-152.7
X311.912Y-154.487
X312.2Y-137.0
X312.6Y-131.3
X315.1Y-155.7
X315.868Y-136.913
X316.0Y-151.5
X318.201Y-36.099
X318.201Y-44.799
X319.3Y-47.6
X326.35Y-42.85
X328.1Y-38.1
X331.5Y-40.7
X340.4Y-144.3
X341.4Y-73.1
X342.111Y-97.3
X342.9Y-111.39
X343.7Y-100.26
X344.5Y-98.1
T2
X321.625Y-85.92
X321.625Y-88.46
X321.625Y-91.0
X321.625Y-93.54
X321.625Y-96.08
X321.625Y-98.62
X321.625Y-101.16
X321.625Y-103.7
X321.625Y-106.24
X321.625Y-108.78
X321.625Y-111.32
X321.625Y-113.86
X321.625Y-116.4
X321.625Y-118.94
X321.625Y-121.48
X321.625Y-124.02
X321.625Y-126.56
X321.625Y-129.1
X321.625Y-131.64
X321.625Y-134.18
X326.113Y-31.1
X326.113Y-45.6
X328.613Y-45.6
X331.113Y-31.1
X331.113Y-45.6
X339.087Y-65.85
X339.087Y-68.39
X339.087Y-70.93
X339.087Y-73.47
X339.405Y-85.92
X339.405Y-88.46
X339.405Y-91.0
X339.405Y-93.54
X339.405Y-96.08
X339.405Y-98.62
X339.405Y-101.16
X339.405Y-103.7
X339.405Y-106.24
X339.405Y-108.78
X339.405Y-111.32
X339.405Y-113.86
X339.405Y-116.4
X339.405Y-118.94
X339.405Y-121.48
X339.405Y-124.02
X339.405Y-126.56
X339.405Y-129.1
X339.405Y-131.64
X339.405Y-134.18
T4
X34.29Y-35.56
X34.29Y-64.135
X36.671Y-140.335
X39.052Y-83.185
X40.64Y-33.02
X40.64Y-61.595
X41.434Y-102.235
X43.021Y-137.795
X45.402Y-80.645
X46.196Y-121.285
X47.784Y-99.695
X52.546Y-118.745
X53.34Y-64.135
X58.102Y-35.56
X59.69Y-61.595
X60.484Y-140.335
X62.865Y-83.185
X64.453Y-33.02
X66.834Y-137.795
X67.627Y-102.235
X69.215Y-80.645
X72.39Y-64.135
X73.977Y-99.695
X77.153Y-35.56
X77.153Y-121.285
X78.74Y-61.595
X81.915Y-83.185
X83.502Y-33.02
X83.502Y-118.745
X84.296Y-140.335
X86.677Y-102.235
X88.265Y-80.645
X90.646Y-137.795
X91.44Y-64.135
X93.027Y-99.695
X96.203Y-35.56
X96.203Y-121.285
X97.79Y-61.595
X100.965Y-83.185
X102.552Y-33.02
X102.552Y-118.745
X105.727Y-102.235
X107.315Y-80.645
X110.49Y-64.135
X112.078Y-99.695
X115.252Y-35.56
X115.252Y-121.285
X116.84Y-61.595
X120.015Y-83.185
X121.602Y-33.02
X121.602Y-118.745
X124.777Y-102.235
X126.365Y-80.645
X129.54Y-64.135
X131.127Y-99.695
X134.302Y-121.285
X135.89Y-61.595
X139.065Y-35.56
X139.065Y-83.185
X140.653Y-118.745
X143.827Y-102.235
X145.415Y-33.02
X145.415Y-80.645
X148.59Y-64.135
X150.177Y-99.695
X153.352Y-121.285
X154.94Y-61.595
X155.734Y-140.335
X158.115Y-35.56
X158.115Y-83.185
X159.702Y-118.745
X162.084Y-137.795
X162.877Y-102.235
X164.465Y-33.02
X164.465Y-80.645
X167.64Y-64.135
X169.227Y-99.695
X172.403Y-121.285
X173.99Y-61.595
X177.165Y-35.56
X177.165Y-83.185
X178.752Y-118.745
X181.927Y-102.235
X183.515Y-33.02
X183.515Y-80.645
X186.69Y-64.135
X188.278Y-99.695
X191.452Y-121.285
X193.04Y-61.595
X196.215Y-35.56
X196.215Y-83.185
X197.802Y-118.745
X200.977Y-102.235
X202.565Y-33.02
X202.565Y-80.645
X205.74Y-64.135
X207.327Y-99.695
X210.502Y-121.285
X212.09Y-61.595
X215.265Y-83.185
X216.852Y-118.745
X220.028Y-35.56
X220.028Y-102.235
X221.615Y-80.645
X224.79Y-64.135
X224.79Y-140.335
X226.377Y-33.02
X226.377Y-99.695
X229.552Y-121.285
X231.14Y-61.595
X231.14Y-137.795
X234.315Y-83.185
X235.903Y-118.745
X239.077Y-35.56
X239.077Y-102.235
X240.665Y-80.645
X243.84Y-64.135
X243.84Y-140.335
X245.427Y-33.02
X245.427Y-99.695
X248.602Y-121.285
X250.19Y-61.595
X250.19Y-137.795
X253.365Y-83.185
X254.952Y-118.745
X258.127Y-35.56
X258.127Y-102.235
X259.715Y-80.645
X262.89Y-64.135
X262.89Y-140.335
X264.477Y-33.02
X264.477Y-99.695
X269.24Y-61.595
X269.24Y-137.795
X272.415Y-83.185
X274.796Y-121.285
X277.178Y-35.56
X278.765Y-80.645
X281.146Y-118.745
X283.527Y-33.02
X286.702Y-145.097
X289.084Y-102.235
X291.465Y-64.135
X293.053Y-142.558
X295.434Y-99.695
X296.227Y-83.185
X297.815Y-61.595
X300.99Y-35.56
X302.577Y-80.645
X305.752Y-126.047
X305.752Y-145.097
X307.34Y-33.02
X312.102Y-123.507
X312.102Y-142.558
X324.803Y-145.097
X331.152Y-142.558
T5
X316.587Y-58.66
X316.587Y-80.66
X338.587Y-58.66
X338.587Y-80.66
T6
X109.544Y-135.905
X209.556Y-135.905
T3
G00X323.012Y-38.75
M15
G01X323.012Y-37.45
M16
G05
G00X334.212Y-38.75
M15
G01X334.212Y-37.45
M16
G05
M30
