M48
; DRILL file {KiCad 9.0.7} date 2026-07-16T17:38:31-0700
; FORMAT={-:-/ absolute / inch / decimal}
; #@! TF.CreationDate,2026-07-16T17:38:31-07:00
; #@! TF.GenerationSoftware,Kicad,Pcbnew,9.0.7
; #@! TF.FileFunction,NonPlated,1,2,NPTH
FMAT,2
INCH
; #@! TA.AperFunction,NonPlated,NPTH,ComponentDrill
T1C0.0689
; #@! TA.AperFunction,NonPlated,NPTH,ComponentDrill
T2C0.0728
; #@! TA.AperFunction,NonPlated,NPTH,ComponentDrill
T3C0.0866
; #@! TA.AperFunction,NonPlated,NPTH,ComponentDrill
T4C0.1200
; #@! TA.AperFunction,NonPlated,NPTH,ComponentDrill
T5C0.1570
%
G90
G05
T1
X1.3Y-1.5
X1.3Y-2.625
X1.3938Y-5.625
X1.4875Y-3.375
X1.5813Y-4.125
X1.7Y-1.5
X1.7Y-2.625
X1.7688Y-4.875
X1.7937Y-5.625
X1.8875Y-3.375
X1.9812Y-4.125
X2.05Y-2.625
X2.1687Y-4.875
X2.2375Y-1.5
X2.3312Y-5.625
X2.425Y-3.375
X2.45Y-2.625
X2.6125Y-4.125
X2.6375Y-1.5
X2.7312Y-5.625
X2.8Y-2.625
X2.825Y-3.375
X2.9875Y-1.5
X2.9875Y-4.875
X3.0125Y-4.125
X3.175Y-3.375
X3.2Y-2.625
X3.2687Y-5.625
X3.3625Y-4.125
X3.3875Y-1.5
X3.3875Y-4.875
X3.55Y-2.625
X3.575Y-3.375
X3.6687Y-5.625
X3.7375Y-1.5
X3.7375Y-4.875
X3.7625Y-4.125
X3.925Y-3.375
X3.95Y-2.625
X4.1125Y-4.125
X4.1375Y-1.5
X4.1375Y-4.875
X4.3Y-2.625
X4.325Y-3.375
X4.4875Y-1.5
X4.4875Y-4.875
X4.5125Y-4.125
X4.675Y-3.375
X4.7Y-2.625
X4.8625Y-4.125
X4.8875Y-1.5
X4.8875Y-4.875
X5.05Y-2.625
X5.075Y-3.375
X5.2375Y-4.875
X5.2625Y-4.125
X5.425Y-1.5
X5.425Y-3.375
X5.45Y-2.625
X5.6125Y-4.125
X5.6375Y-4.875
X5.8Y-2.625
X5.825Y-1.5
X5.825Y-3.375
X5.9875Y-4.875
X6.0125Y-4.125
X6.0812Y-5.625
X6.175Y-1.5
X6.175Y-3.375
X6.2Y-2.625
X6.3625Y-4.125
X6.3875Y-4.875
X6.4813Y-5.625
X6.55Y-2.625
X6.575Y-1.5
X6.575Y-3.375
X6.7375Y-4.875
X6.7625Y-4.125
X6.925Y-1.5
X6.925Y-3.375
X6.95Y-2.625
X7.1125Y-4.125
X7.1375Y-4.875
X7.3Y-2.625
X7.325Y-1.5
X7.325Y-3.375
X7.4875Y-4.875
X7.5125Y-4.125
X7.675Y-1.5
X7.675Y-3.375
X7.7Y-2.625
X7.8625Y-4.125
X7.8875Y-4.875
X8.05Y-2.625
X8.075Y-1.5
X8.075Y-3.375
X8.2375Y-4.875
X8.2625Y-4.125
X8.425Y-3.375
X8.45Y-2.625
X8.6125Y-1.5
X8.6125Y-4.125
X8.6375Y-4.875
X8.8Y-2.625
X8.8Y-5.625
X8.825Y-3.375
X8.9875Y-4.875
X9.0125Y-1.5
X9.0125Y-4.125
X9.175Y-3.375
X9.2Y-2.625
X9.2Y-5.625
X9.3625Y-1.5
X9.3625Y-4.125
X9.3875Y-4.875
X9.55Y-2.625
X9.55Y-5.625
X9.575Y-3.375
X9.7375Y-4.875
X9.7625Y-1.5
X9.7625Y-4.125
X9.925Y-3.375
X9.95Y-2.625
X9.95Y-5.625
X10.1125Y-1.5
X10.1125Y-4.125
X10.1375Y-4.875
X10.3Y-2.625
X10.3Y-5.625
X10.325Y-3.375
X10.5125Y-1.5
X10.5125Y-4.125
X10.675Y-3.375
X10.7Y-2.625
X10.7Y-5.625
X10.7687Y-4.875
X10.8625Y-1.5
X11.075Y-3.375
X11.1687Y-4.875
X11.2375Y-5.8125
X11.2625Y-1.5
X11.3312Y-4.125
X11.425Y-2.625
X11.6125Y-3.375
X11.6375Y-5.8125
X11.7312Y-4.125
X11.8Y-1.5
X11.825Y-2.625
X11.9875Y-5.0625
X11.9875Y-5.8125
X12.0125Y-3.375
X12.2Y-1.5
X12.3875Y-5.0625
X12.3875Y-5.8125
X12.7375Y-5.8125
X13.1375Y-5.8125
T2
X12.9169Y-5.1583
X13.1079Y-5.1583
T3
X12.9051Y-5.2776
X13.1197Y-5.2776
T4
X1.4998Y-4.603
X2.4373Y-4.603
X11.0639Y-3.8518
X11.1592Y-2.351
X12.0014Y-3.8518
X12.0967Y-2.351
T5
X1.4998Y-5.203
X1.5Y-1.5
X1.5Y-2.625
X1.5938Y-5.625
X1.6875Y-3.375
X1.7812Y-4.125
X1.9688Y-4.875
X2.25Y-2.625
X2.4373Y-5.203
X2.4375Y-1.5
X2.5312Y-5.625
X2.625Y-3.375
X2.8125Y-4.125
X3.0Y-2.625
X3.1875Y-1.5
X3.1875Y-4.875
X3.375Y-3.375
X3.4688Y-5.625
X3.5625Y-4.125
X3.75Y-2.625
X3.9375Y-1.5
X3.9375Y-4.875
X4.125Y-3.375
X4.3125Y-4.125
X4.3127Y-5.9506
X4.5Y-2.625
X4.6875Y-1.5
X4.6875Y-4.875
X4.875Y-3.375
X5.0625Y-4.125
X5.25Y-2.625
X5.4375Y-4.875
X5.625Y-1.5
X5.625Y-3.375
X5.8125Y-4.125
X6.0Y-2.625
X6.1875Y-4.875
X6.2812Y-5.625
X6.375Y-1.5
X6.375Y-3.375
X6.5625Y-4.125
X6.75Y-2.625
X6.9375Y-4.875
X7.125Y-1.5
X7.125Y-3.375
X7.3125Y-4.125
X7.5Y-2.625
X7.6875Y-4.875
X7.875Y-1.5
X7.875Y-3.375
X8.0625Y-4.125
X8.25Y-2.625
X8.2502Y-5.9506
X8.4375Y-4.875
X8.625Y-3.375
X8.8125Y-1.5
X8.8125Y-4.125
X9.0Y-2.625
X9.0Y-5.625
X9.1875Y-4.875
X9.375Y-3.375
X9.5625Y-1.5
X9.5625Y-4.125
X9.75Y-2.625
X9.75Y-5.625
X9.9375Y-4.875
X10.125Y-3.375
X10.3125Y-1.5
X10.3125Y-4.125
X10.5Y-2.625
X10.5Y-5.625
X10.875Y-3.375
X10.9688Y-4.875
X11.0625Y-1.5
X11.0639Y-4.4518
X11.1592Y-2.951
X11.4375Y-5.8125
X11.5312Y-4.125
X11.625Y-2.625
X11.8125Y-3.375
X12.0Y-1.5
X12.0014Y-4.4518
X12.0967Y-2.951
X12.1875Y-5.0625
X12.1875Y-5.8125
X12.9375Y-5.8125
M30
