M48
; DRILL file {KiCad 9.0.7} date 2026-07-16T17:38:31-0700
; FORMAT={-:-/ absolute / inch / decimal}
; #@! TF.CreationDate,2026-07-16T17:38:31-07:00
; #@! TF.GenerationSoftware,Kicad,Pcbnew,9.0.7
; #@! TF.FileFunction,Plated,1,2,PTH
FMAT,2
INCH
; #@! TA.AperFunction,Plated,PTH,ViaDrill
T1C0.0118
; #@! TA.AperFunction,Plated,PTH,ComponentDrill
T2C0.0394
; #@! TA.AperFunction,Plated,PTH,ComponentDrill
T3C0.0591
; #@! TA.AperFunction,Plated,PTH,ComponentDrill
T4C0.0600
; #@! TA.AperFunction,Plated,PTH,ComponentDrill
T5C0.0787
; #@! TA.AperFunction,Plated,PTH,ComponentDrill
T6C0.1200
%
G90
G05
T1
X1.5012Y-5.8258
X1.5984Y-1.768
X1.6024Y-2.8976
X1.6922Y-5.8957
X1.7126Y-2.9331
X1.7205Y-1.8031
X1.7913Y-3.6457
X1.8125Y-5.9281
X1.8858Y-4.3976
X1.9109Y-3.6841
X1.9685Y-4.4321
X1.9685Y-5.5906
X2.063Y-5.1496
X2.2244Y-5.1969
X2.3425Y-2.8947
X2.4616Y-2.9321
X2.5399Y-1.7618
X2.6299Y-5.8957
X2.6417Y-1.7913
X2.7175Y-3.6447
X2.7574Y-5.9281
X2.8189Y-3.7008
X2.9134Y-4.3976
X3.0285Y-4.438
X3.0984Y-2.8947
X3.2175Y-2.9341
X3.2815Y-1.7693
X3.2953Y-5.1496
X3.3996Y-5.1831
X3.4035Y-1.8031
X3.4724Y-3.6506
X3.5672Y-5.8947
X3.5925Y-3.6831
X3.6654Y-4.3947
X3.7598Y-5.9252
X3.7746Y-4.4272
X3.8425Y-2.8947
X3.9528Y-2.9291
X4.0354Y-5.1457
X4.0359Y-1.7697
X4.1526Y-5.1811
X4.1693Y-1.7795
X4.2244Y-3.6417
X4.3415Y-3.6781
X4.405Y-4.3947
X4.5236Y-4.4262
X4.5375Y-2.3228
X4.5925Y-2.8947
X4.7008Y-2.9449
X4.7859Y-1.7697
X4.7953Y-5.1496
X4.9016Y-5.185
X4.9065Y-1.8051
X4.9764Y-3.6457
X5.0915Y-3.69
X5.155Y-4.3947
X5.2717Y-4.4173
X5.3504Y-2.8976
X5.4656Y-2.936
X5.53Y-5.1447
X5.6575Y-5.1969
X5.7175Y-1.7697
X5.7283Y-3.6417
X5.8371Y-3.6777
X5.8406Y-1.8051
X5.85Y-2.2047
X5.905Y-4.3947
X6.0079Y-4.4724
X6.0984Y-2.8976
X6.2116Y-2.936
X6.2913Y-5.1526
X6.3836Y-5.8868
X6.3986Y-5.185
X6.4675Y-3.6447
X6.4724Y-1.7756
X6.5561Y-3.7047
X6.563Y-1.8031
X6.6083Y-2.1457
X6.6654Y-4.3976
X6.7825Y-4.4429
X6.8425Y-2.8947
X6.9346Y-2.9527
X7.0394Y-5.1496
X7.1535Y-5.1939
X7.2175Y-1.7697
X7.2175Y-3.6447
X7.3071Y-3.7047
X7.3228Y-1.7953
X7.4173Y-4.4016
X7.5315Y-4.437
X7.6024Y-2.8976
X7.7156Y-2.9321
X7.725Y-2.0866
X7.7874Y-5.1496
X7.9016Y-5.19
X7.9675Y-1.7697
X7.9675Y-3.6447
X8.0886Y-1.8041
X8.1024Y-3.7126
X8.1693Y-4.3976
X8.2746Y-4.4301
X8.3504Y-2.8937
X8.4685Y-2.9331
X8.4702Y-4.5923
X8.5433Y-5.1496
X8.6585Y-5.19
X8.7175Y-3.6447
X8.8307Y-3.7008
X8.9016Y-5.8268
X8.905Y-4.3947
X8.9109Y-1.7697
X9.0039Y-4.4724
X9.0276Y-1.8081
X9.0925Y-5.8947
X9.1024Y-2.8898
X9.2131Y-1.9887
X9.2136Y-2.937
X9.28Y-5.1447
X9.3858Y-5.1929
X9.4724Y-3.6535
X9.5669Y-3.7126
X9.6535Y-5.8228
X9.655Y-4.3947
X9.6614Y-1.7717
X9.7598Y-4.4685
X9.7766Y-1.8091
X9.8425Y-2.8947
X9.8504Y-5.8947
X9.9449Y-2.9409
X9.9584Y-4.6041
X9.9705Y-5.9272
X10.0394Y-5.1457
X10.0591Y-4.8976
X10.1969Y-5.1969
X10.2283Y-3.6496
X10.3425Y-3.6821
X10.405Y-4.3947
X10.4134Y-1.7717
X10.5276Y-1.8051
X10.5984Y-2.9016
X10.5984Y-5.8947
X10.6693Y-3.5128
X10.7283Y-4.3307
X10.748Y-4.2628
X10.7638Y-2.9567
X10.9764Y-3.6535
X11.0236Y-5.5709
X11.0613Y-5.1447
X11.063Y-3.7008
X11.0883Y-4.894
X11.1654Y-1.7717
X11.2402Y-5.4921
X11.2894Y-1.8051
X11.3386Y-6.0157
X11.3976Y-2.7628
X11.4531Y-5.2579
X11.4764Y-3.5128
X11.53Y-6.0822
X11.6339Y-4.4016
X11.6535Y-4.5276
X11.7283Y-2.8898
X11.811Y-2.9724
X11.8307Y-4.1654
X11.8307Y-4.5669
X11.8504Y-3.8976
X11.8701Y-3.7992
X11.9109Y-3.6447
X11.9291Y-4.6654
X11.9306Y-3.4754
X11.9882Y-4.6457
X12.0669Y-4.7244
X12.0669Y-5.185
X12.0866Y-4.8228
X12.0906Y-1.7717
X12.0945Y-5.3332
X12.0945Y-6.0118
X12.28Y-6.0822
X12.2913Y-5.3937
X12.3071Y-5.1693
X12.4055Y-6.1299
X12.4358Y-5.3903
X12.4409Y-5.9646
X12.5276Y-1.4212
X12.5276Y-1.7637
X12.5709Y-1.874
X12.8484Y-1.687
X12.9173Y-1.5
X13.0512Y-1.6024
X13.4016Y-5.6811
X13.4409Y-2.878
X13.4689Y-3.8307
X13.5Y-4.3854
X13.5315Y-3.9472
X13.5618Y-3.902
T2
X12.6624Y-3.3827
X12.6624Y-3.4827
X12.6624Y-3.5827
X12.6624Y-3.6827
X12.6624Y-3.7827
X12.6624Y-3.8827
X12.6624Y-3.9827
X12.6624Y-4.0827
X12.6624Y-4.1827
X12.6624Y-4.2827
X12.6624Y-4.3827
X12.6624Y-4.4827
X12.6624Y-4.5827
X12.6624Y-4.6827
X12.6624Y-4.7827
X12.6624Y-4.8827
X12.6624Y-4.9827
X12.6624Y-5.0827
X12.6624Y-5.1827
X12.6624Y-5.2827
X12.8391Y-1.2244
X12.8391Y-1.7953
X12.9375Y-1.7953
X13.0359Y-1.2244
X13.0359Y-1.7953
X13.3499Y-2.5925
X13.3499Y-2.6925
X13.3499Y-2.7925
X13.3499Y-2.8925
X13.3624Y-3.3827
X13.3624Y-3.4827
X13.3624Y-3.5827
X13.3624Y-3.6827
X13.3624Y-3.7827
X13.3624Y-3.8827
X13.3624Y-3.9827
X13.3624Y-4.0827
X13.3624Y-4.1827
X13.3624Y-4.2827
X13.3624Y-4.3827
X13.3624Y-4.4827
X13.3624Y-4.5827
X13.3624Y-4.6827
X13.3624Y-4.7827
X13.3624Y-4.8827
X13.3624Y-4.9827
X13.3624Y-5.0827
X13.3624Y-5.1827
X13.3624Y-5.2827
T4
X1.35Y-1.4
X1.35Y-2.525
X1.4437Y-5.525
X1.5375Y-3.275
X1.6Y-1.3
X1.6Y-2.425
X1.6312Y-4.025
X1.6937Y-5.425
X1.7875Y-3.175
X1.8187Y-4.775
X1.8812Y-3.925
X2.0688Y-4.675
X2.1Y-2.525
X2.2875Y-1.4
X2.35Y-2.425
X2.3813Y-5.525
X2.475Y-3.275
X2.5375Y-1.3
X2.6313Y-5.425
X2.6625Y-4.025
X2.725Y-3.175
X2.85Y-2.525
X2.9125Y-3.925
X3.0375Y-1.4
X3.0375Y-4.775
X3.1Y-2.425
X3.225Y-3.275
X3.2875Y-1.3
X3.2875Y-4.675
X3.3188Y-5.525
X3.4125Y-4.025
X3.475Y-3.175
X3.5688Y-5.425
X3.6Y-2.525
X3.6625Y-3.925
X3.7875Y-1.4
X3.7875Y-4.775
X3.85Y-2.425
X3.975Y-3.275
X4.0375Y-1.3
X4.0375Y-4.675
X4.1625Y-4.025
X4.225Y-3.175
X4.35Y-2.525
X4.4125Y-3.925
X4.5375Y-1.4
X4.5375Y-4.775
X4.6Y-2.425
X4.725Y-3.275
X4.7875Y-1.3
X4.7875Y-4.675
X4.9125Y-4.025
X4.975Y-3.175
X5.1Y-2.525
X5.1625Y-3.925
X5.2875Y-4.775
X5.35Y-2.425
X5.475Y-1.4
X5.475Y-3.275
X5.5375Y-4.675
X5.6625Y-4.025
X5.725Y-1.3
X5.725Y-3.175
X5.85Y-2.525
X5.9125Y-3.925
X6.0375Y-4.775
X6.1Y-2.425
X6.1312Y-5.525
X6.225Y-1.4
X6.225Y-3.275
X6.2875Y-4.675
X6.3812Y-5.425
X6.4125Y-4.025
X6.475Y-1.3
X6.475Y-3.175
X6.6Y-2.525
X6.6625Y-3.925
X6.7875Y-4.775
X6.85Y-2.425
X6.975Y-1.4
X6.975Y-3.275
X7.0375Y-4.675
X7.1625Y-4.025
X7.225Y-1.3
X7.225Y-3.175
X7.35Y-2.525
X7.4125Y-3.925
X7.5375Y-4.775
X7.6Y-2.425
X7.725Y-1.4
X7.725Y-3.275
X7.7875Y-4.675
X7.9125Y-4.025
X7.975Y-1.3
X7.975Y-3.175
X8.1Y-2.525
X8.1625Y-3.925
X8.2875Y-4.775
X8.35Y-2.425
X8.475Y-3.275
X8.5375Y-4.675
X8.6625Y-1.4
X8.6625Y-4.025
X8.725Y-3.175
X8.85Y-2.525
X8.85Y-5.525
X8.9125Y-1.3
X8.9125Y-3.925
X9.0375Y-4.775
X9.1Y-2.425
X9.1Y-5.425
X9.225Y-3.275
X9.2875Y-4.675
X9.4125Y-1.4
X9.4125Y-4.025
X9.475Y-3.175
X9.6Y-2.525
X9.6Y-5.525
X9.6625Y-1.3
X9.6625Y-3.925
X9.7875Y-4.775
X9.85Y-2.425
X9.85Y-5.425
X9.975Y-3.275
X10.0375Y-4.675
X10.1625Y-1.4
X10.1625Y-4.025
X10.225Y-3.175
X10.35Y-2.525
X10.35Y-5.525
X10.4125Y-1.3
X10.4125Y-3.925
X10.6Y-2.425
X10.6Y-5.425
X10.725Y-3.275
X10.8187Y-4.775
X10.9125Y-1.4
X10.975Y-3.175
X11.0687Y-4.675
X11.1625Y-1.3
X11.2875Y-5.7125
X11.3812Y-4.025
X11.475Y-2.525
X11.5375Y-5.6125
X11.6312Y-3.925
X11.6625Y-3.275
X11.725Y-2.425
X11.85Y-1.4
X11.9125Y-3.175
X12.0375Y-4.9625
X12.0375Y-5.7125
X12.1Y-1.3
X12.2875Y-4.8625
X12.2875Y-5.6125
X12.7875Y-5.7125
X13.0375Y-5.6125
T5
X12.4641Y-2.3094
X12.4641Y-3.1756
X13.3302Y-2.3094
X13.3302Y-3.1756
T6
X4.3127Y-5.3506
X8.2502Y-5.3506
T3
G00X12.717Y-1.5256
M15
G01X12.717Y-1.4744
M16
G05
G00X13.158Y-1.5256
M15
G01X13.158Y-1.4744
M16
G05
M30
