M48
; DRILL file {KiCad 9.0.7} date 2026-07-15T21:02:36-0700
; FORMAT={-:-/ absolute / metric / decimal}
; #@! TF.CreationDate,2026-07-15T21:02:36-07:00
; #@! TF.GenerationSoftware,Kicad,Pcbnew,9.0.7
; #@! TF.FileFunction,NonPlated,1,2,NPTH
FMAT,2
METRIC
; #@! TA.AperFunction,NonPlated,NPTH,ComponentDrill
T1C1.750
; #@! TA.AperFunction,NonPlated,NPTH,ComponentDrill
T2C1.850
; #@! TA.AperFunction,NonPlated,NPTH,ComponentDrill
T3C2.200
; #@! TA.AperFunction,NonPlated,NPTH,ComponentDrill
T4C3.048
; #@! TA.AperFunction,NonPlated,NPTH,ComponentDrill
T5C3.988
%
G90
G05
T1
X33.02Y-38.1
X33.02Y-66.675
X35.401Y-142.875
X37.782Y-85.725
X40.164Y-104.775
X43.18Y-38.1
X43.18Y-66.675
X44.926Y-123.825
X45.561Y-142.875
X47.942Y-85.725
X50.324Y-104.775
X52.07Y-66.675
X55.086Y-123.825
X56.832Y-38.1
X59.214Y-142.875
X61.595Y-85.725
X62.23Y-66.675
X66.358Y-104.775
X66.992Y-38.1
X69.374Y-142.875
X71.12Y-66.675
X71.755Y-85.725
X75.882Y-38.1
X75.882Y-123.825
X76.517Y-104.775
X80.645Y-85.725
X81.28Y-66.675
X83.026Y-142.875
X85.407Y-104.775
X86.042Y-38.1
X86.042Y-123.825
X90.17Y-66.675
X90.805Y-85.725
X93.186Y-142.875
X94.932Y-38.1
X94.932Y-123.825
X95.567Y-104.775
X99.695Y-85.725
X100.33Y-66.675
X104.457Y-104.775
X105.093Y-38.1
X105.093Y-123.825
X109.22Y-66.675
X109.855Y-85.725
X113.983Y-38.1
X113.983Y-123.825
X114.617Y-104.775
X118.745Y-85.725
X119.38Y-66.675
X123.507Y-104.775
X124.142Y-38.1
X124.142Y-123.825
X128.27Y-66.675
X128.905Y-85.725
X133.032Y-123.825
X133.667Y-104.775
X137.795Y-38.1
X137.795Y-85.725
X138.43Y-66.675
X142.558Y-104.775
X143.192Y-123.825
X147.32Y-66.675
X147.955Y-38.1
X147.955Y-85.725
X152.082Y-123.825
X152.718Y-104.775
X154.464Y-142.875
X156.845Y-38.1
X156.845Y-85.725
X157.48Y-66.675
X161.607Y-104.775
X162.243Y-123.825
X164.624Y-142.875
X166.37Y-66.675
X167.005Y-38.1
X167.005Y-85.725
X171.132Y-123.825
X171.767Y-104.775
X175.895Y-38.1
X175.895Y-85.725
X176.53Y-66.675
X180.657Y-104.775
X181.292Y-123.825
X185.42Y-66.675
X186.055Y-38.1
X186.055Y-85.725
X190.183Y-123.825
X190.817Y-104.775
X194.945Y-38.1
X194.945Y-85.725
X195.58Y-66.675
X199.707Y-104.775
X200.343Y-123.825
X204.47Y-66.675
X205.105Y-38.1
X205.105Y-85.725
X209.232Y-123.825
X209.867Y-104.775
X213.995Y-85.725
X214.63Y-66.675
X218.757Y-38.1
X218.757Y-104.775
X219.392Y-123.825
X223.52Y-66.675
X223.52Y-142.875
X224.155Y-85.725
X228.282Y-123.825
X228.917Y-38.1
X228.917Y-104.775
X233.045Y-85.725
X233.68Y-66.675
X233.68Y-142.875
X237.807Y-38.1
X237.807Y-104.775
X238.442Y-123.825
X242.57Y-66.675
X242.57Y-142.875
X243.205Y-85.725
X247.332Y-123.825
X247.968Y-38.1
X247.968Y-104.775
X252.095Y-85.725
X252.73Y-66.675
X252.73Y-142.875
X256.858Y-38.1
X256.858Y-104.775
X257.493Y-123.825
X261.62Y-66.675
X261.62Y-142.875
X262.255Y-85.725
X267.017Y-38.1
X267.017Y-104.775
X271.145Y-85.725
X271.78Y-66.675
X271.78Y-142.875
X273.526Y-123.825
X275.907Y-38.1
X281.305Y-85.725
X283.686Y-123.825
X285.433Y-147.637
X286.067Y-38.1
X287.814Y-104.775
X290.195Y-66.675
X294.957Y-85.725
X295.592Y-147.637
X297.974Y-104.775
X299.72Y-38.1
X300.355Y-66.675
X304.482Y-128.588
X304.482Y-147.637
X305.118Y-85.725
X309.88Y-38.1
X314.642Y-128.588
X314.642Y-147.637
X323.532Y-147.637
X333.692Y-147.637
T2
X328.09Y-131.02
X332.94Y-131.02
T3
X327.79Y-134.05
X333.24Y-134.05
T4
X38.094Y-116.915
X61.906Y-116.915
X281.024Y-97.835
X283.444Y-59.715
X304.836Y-97.835
X307.256Y-59.715
T5
X38.094Y-132.155
X38.1Y-38.1
X38.1Y-66.675
X40.481Y-142.875
X42.862Y-85.725
X45.244Y-104.775
X50.006Y-123.825
X57.15Y-66.675
X61.906Y-132.155
X61.912Y-38.1
X64.294Y-142.875
X66.675Y-85.725
X71.438Y-104.775
X76.2Y-66.675
X80.962Y-38.1
X80.962Y-123.825
X85.725Y-85.725
X88.106Y-142.875
X90.487Y-104.775
X95.25Y-66.675
X100.012Y-38.1
X100.012Y-123.825
X104.775Y-85.725
X109.537Y-104.775
X109.544Y-151.145
X114.3Y-66.675
X119.062Y-38.1
X119.062Y-123.825
X123.825Y-85.725
X128.588Y-104.775
X133.35Y-66.675
X138.112Y-123.825
X142.875Y-38.1
X142.875Y-85.725
X147.637Y-104.775
X152.4Y-66.675
X157.162Y-123.825
X159.544Y-142.875
X161.925Y-38.1
X161.925Y-85.725
X166.688Y-104.775
X171.45Y-66.675
X176.213Y-123.825
X180.975Y-38.1
X180.975Y-85.725
X185.737Y-104.775
X190.5Y-66.675
X195.262Y-123.825
X200.025Y-38.1
X200.025Y-85.725
X204.787Y-104.775
X209.55Y-66.675
X209.556Y-151.145
X214.312Y-123.825
X219.075Y-85.725
X223.837Y-38.1
X223.837Y-104.775
X228.6Y-66.675
X228.6Y-142.875
X233.362Y-123.825
X238.125Y-85.725
X242.887Y-38.1
X242.887Y-104.775
X247.65Y-66.675
X247.65Y-142.875
X252.412Y-123.825
X257.175Y-85.725
X261.938Y-38.1
X261.938Y-104.775
X266.7Y-66.675
X266.7Y-142.875
X276.225Y-85.725
X278.606Y-123.825
X280.988Y-38.1
X281.024Y-113.075
X283.444Y-74.955
X290.512Y-147.637
X292.894Y-104.775
X295.275Y-66.675
X300.037Y-85.725
X304.8Y-38.1
X304.836Y-113.075
X307.256Y-74.955
X309.562Y-128.588
X309.562Y-147.637
X328.613Y-147.637
M30
